# xmcd
#
# Track frame offsets:
#	150
#	9415
#	20278
#	31666
#	42559
#	51802
#	62770
#	71113
#	80507
#	89322
#	98091
#	109104
#	121144
#	133312
#	143312
#	154977
#	167279
#	177555
#	189441
#	200555
#
# Disc length: 2815 seconds
#
# Revision: 0
# Processed by: cddbd v1.5.2PL0 Copyright (c) Steve Scherf et al.
# Submitted via: EZCDAudioConverter 3.1.0.1
#
DISCID=080afd14
DTITLE=Moon Mullican - Sweet Rockin' Music
DYEAR=195
DGENRE=Pianorock
TTITLE0=Jenny Lee
TTITLE1=That's Me
TTITLE2=Sweet Rockin' Music
TTITLE3=Moon's Rock
TTITLE4=Cush Cush Ky-Yay
TTITLE5=The Writin' On The Wall
TTITLE6=The Wedding Of The Bugs
TTITLE7=Big Big City
TTITLE8=Pipeliner Blues
TTITLE9=I Was Sorta Wonderin'
TTITLE10=Early Morning Blues
TTITLE11=Sweeter Than Flowers
TTITLE12=The Leaves Mustn't Fall
TTITLE13=My Baby's Gone
TTITLE14=Every Which A Way
TTITLE15=I'm Waiting For Ships That Never Come In
TTITLE16=I'll Sail My Ship Alone
TTITLE17=Jolie Blonde
TTITLE18=Truckers Rag
TTITLE19=Honolulu Rockarolla
EXTD=
EXTT0=
EXTT1=
EXTT2=
EXTT3=
EXTT4=
EXTT5=
EXTT6=
EXTT7=
EXTT8=
EXTT9=
EXTT10=
EXTT11=
EXTT12=
EXTT13=
EXTT14=
EXTT15=
EXTT16=
EXTT17=
EXTT18=
EXTT19=
PLAYORDER=
